Coordinates
version=1
nRows=11
nColumns=40
inDegrees=yes

Units are S.I. units (second, meters, Newtons, ...)
Angles are in degrees.

endheader
time	pelvis_tilt	pelvis_list	pelvis_rotation	pelvis_tx	pelvis_ty	pelvis_tz	hip_flexion_r	hip_adduction_r	hip_rotation_r	knee_angle_r	knee_angle_r_beta	ankle_angle_r	subtalar_angle_r	mtp_angle_r	hip_flexion_l	hip_adduction_l	hip_rotation_l	knee_angle_l	knee_angle_l_beta	ankle_angle_l	subtalar_angle_l	mtp_angle_l	lumbar_extension	lumbar_bending	lumbar_rotation	arm_flex_r	arm_add_r	arm_rot_r	elbow_flex_r	pro_sup_r	wrist_flex_r	wrist_dev_r	arm_flex_l	arm_add_l	arm_rot_l	elbow_flex_l	pro_sup_l	wrist_flex_l	wrist_dev_l
     13.34000000	     -0.99822333	     -5.11822027	      2.61631689	      1.11329691	      0.93073662	      0.48775908	     10.39667249	      2.69184294	    -14.56152324	     18.83226711	     18.83226711	     11.34450268	     -2.86965456	     -5.17683436	     28.00294262	    -14.10544862	     -0.83361297	     56.42342779	     56.42342779	     11.27855250	    -18.38110201	     12.14637173	    -10.94763837	      6.63257866	      2.57753606	     15.84406202	    -16.68177342	     -3.14290721	     52.03282803	     45.89793215	      0.00000000	      0.00000000	      6.27511698	     -8.43953004	     -6.53862243	     39.86114824	     45.87853539	      0.00000000	      0.00000000
     13.35357143	     -1.15951243	     -4.88117722	      3.14972269	      1.11179655	      0.93151303	      0.48812017	      9.81432096	      2.56959945	    -14.89510343	     18.00224630	     18.00224630	     11.29884040	     -2.81246685	     -5.15028578	     28.89323248	    -13.71125512	     -0.85124170	     53.36462972	     53.36462972	     11.47482000	    -18.46136023	     12.32907487	    -10.94319938	      6.29719894	      2.14177377	     17.56596297	    -16.39710048	     -3.12737154	     53.67611099	     45.84196706	      0.00000000	      0.00000000	      5.19465190	     -8.62085700	     -6.47962592	     38.25315318	     45.85847491	      0.00000000	      0.00000000
     13.36714286	     -1.30270970	     -4.73271337	      3.66205849	      1.11034539	      0.93208692	      0.48846302	      9.22350216	      2.53020974	    -15.31789307	     17.17732322	     17.17732322	     11.04265201	     -2.68830890	     -5.89124536	     29.51244701	    -13.39037374	     -0.93905569	     49.89607629	     49.89607629	     11.12178481	    -18.41878320	     11.12744104	    -10.96803813	      6.12761861	      2.40917990	     18.34212239	    -17.08737485	     -2.29737382	     57.40881018	     45.66120971	      0.00000000	      0.00000000	      5.35777390	     -8.35324273	     -6.78381390	     34.39336683	     45.92673642	      0.00000000	      0.00000000
     13.38071429	     -1.47435858	     -4.53464342	      4.15522491	      1.10885580	      0.93264977	      0.48873221	      8.71944205	      2.45003492	    -15.56439128	     16.46348365	     16.46348365	     11.01594004	     -2.74267269	     -5.81710110	     29.95624784	    -12.86639494	     -0.90227603	     46.17550383	     46.17550383	     11.06749489	    -18.24620400	     11.36558446	    -10.99900202	      5.83407391	      2.11340101	     20.04207650	    -16.91678402	     -2.44799637	     59.12687265	     45.61304272	      0.00000000	      0.00000000	      4.27323138	     -8.49616251	     -6.80839462	     33.24509710	     45.91872331	      0.00000000	      0.00000000
     13.39428571	     -1.80741828	     -4.59125890	      4.60002901	      1.10718621	      0.93247407	      0.48905603	      8.63612449	      2.57224969	    -15.88545360	     16.15262123	     16.15262123	     11.09567398	     -2.84899965	     -5.83884751	     30.62743849	    -12.60179516	     -0.79351915	     42.59925134	     42.59925134	     11.23870524	    -17.50016694	     11.62804537	    -10.79552576	      5.84212914	      2.38526148	     21.65160915	    -17.28195972	     -2.62749996	     60.22109958	     45.58934142	      0.00000000	      0.00000000	      3.38727672	     -8.44201451	     -6.81035137	     32.58615249	     45.90665811	      0.00000000	      0.00000000
     13.40785714	     -1.85673744	     -4.18294165	      5.02656020	      1.10586260	      0.93316264	      0.48906218	      7.86809162	      2.29126669	    -16.05383053	     15.22600935	     15.22600935	     11.06586490	     -2.69799259	     -5.86404221	     30.45361200	    -11.67890198	     -0.61006637	     38.43202816	     38.43202816	     10.92216293	    -17.15598092	     11.72703040	    -11.01384604	      5.32206623	      1.60908688	     23.35373007	    -16.64406009	     -2.45745019	     62.98892068	     45.49377907	      0.00000000	      0.00000000	      2.33458763	     -8.75815673	     -6.84606918	     30.80099162	     45.90357522	      0.00000000	      0.00000000
     13.42142857	     -2.05718464	     -4.24342115	      5.47086349	      1.10438093	      0.93297482	      0.48902323	      7.48259922	      2.42358956	    -16.58314018	     14.59603170	     14.59603170	     10.81382902	     -2.45844368	     -6.88603860	     30.56384034	    -11.27186043	     -0.29350904	     34.42170284	     34.42170284	      9.77477894	    -16.43466589	      9.06317610	    -11.10616646	      5.43636548	      2.31146649	     23.36492009	    -18.00395374	     -1.68126628	     68.68195957	     45.27273934	      0.00000000	      0.00000000	      2.94415589	     -8.43790004	     -7.37850610	     27.11155292	     46.03872476	      0.00000000	      0.00000000
     13.43500000	     -2.35265199	     -4.13924121	      5.80190046	      1.10283946	      0.93271805	      0.48894715	      7.32149298	      2.37018786	    -16.69627309	     14.22866871	     14.22866871	     10.89827252	     -2.59710670	     -6.90768248	     30.73763403	    -10.70195433	     -0.04496424	     30.73460014	     30.73460014	      9.78355731	    -15.01946809	      9.36563956	    -11.02628548	      5.23260169	      2.25436661	     25.01989688	    -17.86952951	     -1.97369336	     70.13862845	     45.24257988	      0.00000000	      0.00000000	      2.05783861	     -8.52527092	     -7.44301559	     26.42816838	     46.04007352	      0.00000000	      0.00000000
     13.44857143	     -2.54329794	     -4.23248122	      6.16589635	      1.10138774	      0.93237021	      0.48878629	      7.01099982	      2.53962254	    -16.96041987	     13.76188528	     13.76188528	     10.91979606	     -2.55895114	     -7.15474279	     30.88987201	    -10.34015939	      0.32589782	     27.39124521	     27.39124521	      9.62270178	    -13.42235611	      9.06765492	    -11.12083053	      5.32233581	      2.03554477	     26.34681610	    -17.75078391	     -2.08775201	     73.39333964	     45.14905061	      0.00000000	      0.00000000	      1.27351972	     -8.63051167	     -7.70653109	     25.36126721	     46.09094961	      0.00000000	      0.00000000
     13.46214286	     -2.80359361	     -4.20754901	      6.44468058	      1.09991530	      0.93194286	      0.48849726	      6.89107429	      2.53297412	    -17.10351447	     13.54283016	     13.54283016	     11.04465482	     -2.65268003	     -7.26342094	     31.03831636	     -9.89736020	      0.49180306	     24.31519994	     24.31519994	      9.61369445	    -11.66013735	      9.30574964	    -11.11681978	      5.20059285	      2.07032774	     27.79494432	    -17.73676959	     -2.18849447	     75.30066827	     45.09839041	      0.00000000	      0.00000000	      0.49770457	     -8.73885535	     -7.81215365	     24.79785090	     46.10357877	      0.00000000	      0.00000000
     13.47571429	     -3.07827835	     -4.25484726	      6.72050015	      1.09850698	      0.93140098	      0.48806998	      6.77878461	      2.59469887	    -17.25276676	     13.30179018	     13.30179018	     11.17790682	     -2.68464590	     -7.36061110	     31.27367304	     -9.53855714	      0.61598290	     21.72379401	     21.72379401	      9.59093286	     -9.97115923	      9.56143269	    -11.08991217	      5.20101628	      1.99165668	     29.19995988	    -17.62013206	     -2.19365646	     77.54064259	     45.03384352	      0.00000000	      0.00000000	     -0.31483207	     -8.82024173	     -7.91543819	     24.31494593	     46.11458895	      0.00000000	      0.00000000
